<mxfile host="app.diagrams.net" modified="2024-03-12T15:39:19.163Z" agent="Mozilla/5.0 (Macintosh; Intel Mac OS X 10_15_7) AppleWebKit/605.1.15 (KHTML, like Gecko) Version/17.3.1 Safari/605.1.15" etag="2Hy4wqUPzMQwmGfKT9SZ" version="24.0.2" type="github">
  <diagram name="Page-1" id="_PSj2uzglG34KLozcxOm">
    <mxGraphModel dx="1744" dy="872" grid="1" gridSize="10" guides="1" tooltips="1" connect="1" arrows="1" fold="1" page="1" pageScale="1" pageWidth="850" pageHeight="1100" math="0" shadow="0">
      <root>
        <mxCell id="0" />
        <mxCell id="1" parent="0" />
        <mxCell id="VBlqkpArDyD-FnmfPZUA-1" value="S-W.com" style="shape=umlLifeline;perimeter=lifelinePerimeter;container=1;collapsible=0;recursiveResize=0;rounded=0;shadow=0;strokeWidth=1;fillColor=#1ba1e2;strokeColor=#006EAF;fontColor=#ffffff;" vertex="1" parent="1">
          <mxGeometry x="80" y="80" width="140" height="760" as="geometry" />
        </mxCell>
        <mxCell id="VBlqkpArDyD-FnmfPZUA-2" value="Invoice Microservice" style="shape=umlLifeline;perimeter=lifelinePerimeter;container=1;collapsible=0;recursiveResize=0;rounded=0;shadow=0;strokeWidth=1;fillColor=#e1d5e7;strokeColor=#9673a6;" vertex="1" parent="1">
          <mxGeometry x="480" y="80" width="120" height="750" as="geometry" />
        </mxCell>
        <mxCell id="VBlqkpArDyD-FnmfPZUA-3" value="" style="html=1;points=[[0,0,0,0,5],[0,1,0,0,-5],[1,0,0,0,5],[1,1,0,0,-5]];perimeter=orthogonalPerimeter;outlineConnect=0;targetShapes=umlLifeline;portConstraint=eastwest;newEdgeStyle={&quot;curved&quot;:0,&quot;rounded&quot;:0};" vertex="1" parent="VBlqkpArDyD-FnmfPZUA-2">
          <mxGeometry x="55" y="160" width="10" height="590" as="geometry" />
        </mxCell>
        <mxCell id="VBlqkpArDyD-FnmfPZUA-4" value="" style="html=1;points=[[0,0,0,0,5],[0,1,0,0,-5],[1,0,0,0,5],[1,1,0,0,-5]];perimeter=orthogonalPerimeter;outlineConnect=0;targetShapes=umlLifeline;portConstraint=eastwest;newEdgeStyle={&quot;curved&quot;:0,&quot;rounded&quot;:0};" vertex="1" parent="VBlqkpArDyD-FnmfPZUA-2">
          <mxGeometry x="65" y="470" width="10" height="40" as="geometry" />
        </mxCell>
        <mxCell id="VBlqkpArDyD-FnmfPZUA-5" value="validate if user is having access &lt;br&gt;to requested account" style="html=1;align=left;spacingLeft=2;endArrow=block;rounded=0;edgeStyle=orthogonalEdgeStyle;curved=0;rounded=0;" edge="1" parent="VBlqkpArDyD-FnmfPZUA-2" target="VBlqkpArDyD-FnmfPZUA-4">
          <mxGeometry x="0.2107" relative="1" as="geometry">
            <mxPoint x="65" y="460" as="sourcePoint" />
            <Array as="points">
              <mxPoint x="65" y="460" />
              <mxPoint x="100" y="460" />
              <mxPoint x="100" y="500" />
            </Array>
            <mxPoint as="offset" />
          </mxGeometry>
        </mxCell>
        <mxCell id="VBlqkpArDyD-FnmfPZUA-8" value="" style="rounded=0;whiteSpace=wrap;html=1;" vertex="1" parent="VBlqkpArDyD-FnmfPZUA-2">
          <mxGeometry x="65" y="660" width="15" height="40" as="geometry" />
        </mxCell>
        <mxCell id="VBlqkpArDyD-FnmfPZUA-9" value="" style="html=1;align=left;spacingLeft=2;endArrow=block;rounded=0;edgeStyle=orthogonalEdgeStyle;curved=0;rounded=0;" edge="1" parent="VBlqkpArDyD-FnmfPZUA-2">
          <mxGeometry x="0.2222" relative="1" as="geometry">
            <mxPoint x="65" y="700" as="sourcePoint" />
            <Array as="points">
              <mxPoint x="65" y="650" />
              <mxPoint x="110" y="650" />
              <mxPoint x="110" y="690" />
            </Array>
            <mxPoint as="offset" />
            <mxPoint x="80" y="690" as="targetPoint" />
          </mxGeometry>
        </mxCell>
        <mxCell id="VBlqkpArDyD-FnmfPZUA-54" value="" style="rounded=0;whiteSpace=wrap;html=1;" vertex="1" parent="VBlqkpArDyD-FnmfPZUA-2">
          <mxGeometry x="65" y="220" width="10" height="30" as="geometry" />
        </mxCell>
        <mxCell id="VBlqkpArDyD-FnmfPZUA-55" value="create list of unique account numbers" style="html=1;align=left;spacingLeft=2;endArrow=block;rounded=0;edgeStyle=orthogonalEdgeStyle;curved=0;rounded=0;" edge="1" parent="VBlqkpArDyD-FnmfPZUA-2">
          <mxGeometry x="0.2107" relative="1" as="geometry">
            <mxPoint x="65" y="209.97000000000003" as="sourcePoint" />
            <Array as="points">
              <mxPoint x="65" y="209.97000000000003" />
              <mxPoint x="100" y="209.97000000000003" />
              <mxPoint x="100" y="249.97000000000003" />
            </Array>
            <mxPoint as="offset" />
            <mxPoint x="75" y="249.97000000000003" as="targetPoint" />
          </mxGeometry>
        </mxCell>
        <mxCell id="VBlqkpArDyD-FnmfPZUA-10" value="HCL Commerce" style="shape=umlLifeline;perimeter=lifelinePerimeter;container=1;collapsible=0;recursiveResize=0;rounded=0;shadow=0;strokeWidth=1;fillColor=#dae8fc;strokeColor=#6c8ebf;" vertex="1" parent="1">
          <mxGeometry x="934" y="80" width="100" height="760" as="geometry" />
        </mxCell>
        <mxCell id="VBlqkpArDyD-FnmfPZUA-11" value="" style="html=1;points=[[0,0,0,0,5],[0,1,0,0,-5],[1,0,0,0,5],[1,1,0,0,-5]];perimeter=orthogonalPerimeter;outlineConnect=0;targetShapes=umlLifeline;portConstraint=eastwest;newEdgeStyle={&quot;curved&quot;:0,&quot;rounded&quot;:0};" vertex="1" parent="VBlqkpArDyD-FnmfPZUA-10">
          <mxGeometry x="45" y="160" width="10" height="50" as="geometry" />
        </mxCell>
        <mxCell id="VBlqkpArDyD-FnmfPZUA-12" value="" style="html=1;points=[[0,0,0,0,5],[0,1,0,0,-5],[1,0,0,0,5],[1,1,0,0,-5]];perimeter=orthogonalPerimeter;outlineConnect=0;targetShapes=umlLifeline;portConstraint=eastwest;newEdgeStyle={&quot;curved&quot;:0,&quot;rounded&quot;:0};" vertex="1" parent="VBlqkpArDyD-FnmfPZUA-10">
          <mxGeometry x="45" y="370" width="10" height="40" as="geometry" />
        </mxCell>
        <mxCell id="VBlqkpArDyD-FnmfPZUA-13" value="Sherlink" style="shape=umlLifeline;perimeter=lifelinePerimeter;container=1;collapsible=0;recursiveResize=0;rounded=0;shadow=0;strokeWidth=1;fillColor=#d5e8d4;strokeColor=#82b366;" vertex="1" parent="1">
          <mxGeometry x="1110" y="80" width="100" height="760" as="geometry" />
        </mxCell>
        <mxCell id="VBlqkpArDyD-FnmfPZUA-14" value="" style="html=1;points=[[0,0,0,0,5],[0,1,0,0,-5],[1,0,0,0,5],[1,1,0,0,-5]];perimeter=orthogonalPerimeter;outlineConnect=0;targetShapes=umlLifeline;portConstraint=eastwest;newEdgeStyle={&quot;curved&quot;:0,&quot;rounded&quot;:0};" vertex="1" parent="VBlqkpArDyD-FnmfPZUA-13">
          <mxGeometry x="45" y="550" width="10" height="30" as="geometry" />
        </mxCell>
        <mxCell id="VBlqkpArDyD-FnmfPZUA-15" value="Kong" style="shape=umlLifeline;perimeter=lifelinePerimeter;container=1;collapsible=0;recursiveResize=0;rounded=0;shadow=0;strokeWidth=1;fillColor=#ffe6cc;strokeColor=#d79b00;" vertex="1" parent="1">
          <mxGeometry x="280" y="80" width="90" height="760" as="geometry" />
        </mxCell>
        <mxCell id="VBlqkpArDyD-FnmfPZUA-16" value="request to /qbexport API" style="html=1;verticalAlign=bottom;endArrow=block;curved=0;rounded=0;entryX=0;entryY=0;entryDx=0;entryDy=5;" edge="1" parent="VBlqkpArDyD-FnmfPZUA-15">
          <mxGeometry relative="1" as="geometry">
            <mxPoint x="100" y="75" as="sourcePoint" />
          </mxGeometry>
        </mxCell>
        <mxCell id="VBlqkpArDyD-FnmfPZUA-17" value="response qbInvoices" style="html=1;verticalAlign=bottom;endArrow=open;dashed=1;endSize=8;curved=0;rounded=0;exitX=0;exitY=1;exitDx=0;exitDy=-5;" edge="1" parent="VBlqkpArDyD-FnmfPZUA-15">
          <mxGeometry relative="1" as="geometry">
            <mxPoint x="100" y="145" as="targetPoint" />
          </mxGeometry>
        </mxCell>
        <mxCell id="VBlqkpArDyD-FnmfPZUA-18" value="" style="html=1;points=[[0,0,0,0,5],[0,1,0,0,-5],[1,0,0,0,5],[1,1,0,0,-5]];perimeter=orthogonalPerimeter;outlineConnect=0;targetShapes=umlLifeline;portConstraint=eastwest;newEdgeStyle={&quot;curved&quot;:0,&quot;rounded&quot;:0};" vertex="1" parent="VBlqkpArDyD-FnmfPZUA-15">
          <mxGeometry x="40" y="70" width="10" height="690" as="geometry" />
        </mxCell>
        <mxCell id="VBlqkpArDyD-FnmfPZUA-19" value="" style="html=1;points=[[0,0,0,0,5],[0,1,0,0,-5],[1,0,0,0,5],[1,1,0,0,-5]];perimeter=orthogonalPerimeter;outlineConnect=0;targetShapes=umlLifeline;portConstraint=eastwest;newEdgeStyle={&quot;curved&quot;:0,&quot;rounded&quot;:0};" vertex="1" parent="VBlqkpArDyD-FnmfPZUA-15">
          <mxGeometry x="50" y="100" width="10" height="40" as="geometry" />
        </mxCell>
        <mxCell id="VBlqkpArDyD-FnmfPZUA-20" value="Validate JWT" style="html=1;align=left;spacingLeft=2;endArrow=block;rounded=0;edgeStyle=orthogonalEdgeStyle;curved=0;rounded=0;exitX=1;exitY=0;exitDx=0;exitDy=5;exitPerimeter=0;" edge="1" parent="VBlqkpArDyD-FnmfPZUA-15" source="VBlqkpArDyD-FnmfPZUA-18" target="VBlqkpArDyD-FnmfPZUA-19">
          <mxGeometry x="0.2632" relative="1" as="geometry">
            <mxPoint x="55" y="80" as="sourcePoint" />
            <Array as="points">
              <mxPoint x="50" y="80" />
              <mxPoint x="85" y="80" />
              <mxPoint x="85" y="110" />
            </Array>
            <mxPoint as="offset" />
          </mxGeometry>
        </mxCell>
        <mxCell id="VBlqkpArDyD-FnmfPZUA-21" value="request to /invoice API with JWT" style="html=1;verticalAlign=bottom;endArrow=block;curved=0;rounded=0;entryX=0;entryY=0;entryDx=0;entryDy=5;exitX=1;exitY=0;exitDx=0;exitDy=5;exitPerimeter=0;" edge="1" parent="1" source="VBlqkpArDyD-FnmfPZUA-52" target="VBlqkpArDyD-FnmfPZUA-18">
          <mxGeometry x="0.0588" y="5" relative="1" as="geometry">
            <mxPoint x="150" y="155" as="sourcePoint" />
            <mxPoint as="offset" />
          </mxGeometry>
        </mxCell>
        <mxCell id="VBlqkpArDyD-FnmfPZUA-22" value="request to /invoice API with JWT" style="html=1;verticalAlign=bottom;endArrow=block;curved=0;rounded=0;entryX=0;entryY=0;entryDx=0;entryDy=5;" edge="1" parent="1" target="VBlqkpArDyD-FnmfPZUA-3">
          <mxGeometry x="-0.0244" y="5" relative="1" as="geometry">
            <mxPoint x="330" y="245" as="sourcePoint" />
            <mxPoint as="offset" />
          </mxGeometry>
        </mxCell>
        <mxCell id="VBlqkpArDyD-FnmfPZUA-23" value="request to&amp;nbsp;/account/v1/@self" style="html=1;verticalAlign=bottom;endArrow=block;curved=0;rounded=0;" edge="1" parent="1" target="VBlqkpArDyD-FnmfPZUA-30" source="VBlqkpArDyD-FnmfPZUA-3">
          <mxGeometry relative="1" as="geometry">
            <mxPoint x="545" y="310" as="sourcePoint" />
            <mxPoint as="offset" />
            <mxPoint x="690" y="310" as="targetPoint" />
            <Array as="points">
              <mxPoint x="670" y="350" />
            </Array>
          </mxGeometry>
        </mxCell>
        <mxCell id="VBlqkpArDyD-FnmfPZUA-24" value="linkedAccounts" style="html=1;verticalAlign=bottom;endArrow=open;dashed=1;endSize=8;curved=0;rounded=0;" edge="1" parent="1" source="VBlqkpArDyD-FnmfPZUA-27" target="VBlqkpArDyD-FnmfPZUA-3">
          <mxGeometry x="-0.0064" y="-1" relative="1" as="geometry">
            <mxPoint x="545" y="458.8000000000002" as="targetPoint" />
            <mxPoint as="offset" />
            <mxPoint x="794.0400000000002" y="458.8000000000002" as="sourcePoint" />
            <Array as="points">
              <mxPoint x="670" y="510" />
            </Array>
          </mxGeometry>
        </mxCell>
        <mxCell id="VBlqkpArDyD-FnmfPZUA-25" value="downloadInvoicesRequest" style="html=1;verticalAlign=bottom;endArrow=block;curved=0;rounded=0;entryX=0;entryY=0;entryDx=0;entryDy=5;" edge="1" parent="1" source="VBlqkpArDyD-FnmfPZUA-3" target="VBlqkpArDyD-FnmfPZUA-14">
          <mxGeometry relative="1" as="geometry">
            <mxPoint x="550" y="700" as="sourcePoint" />
          </mxGeometry>
        </mxCell>
        <mxCell id="VBlqkpArDyD-FnmfPZUA-26" value="Resource" style="html=1;verticalAlign=bottom;endArrow=open;dashed=1;endSize=8;curved=0;rounded=0;exitX=0;exitY=1;exitDx=0;exitDy=-5;" edge="1" parent="1" source="VBlqkpArDyD-FnmfPZUA-14" target="VBlqkpArDyD-FnmfPZUA-2">
          <mxGeometry relative="1" as="geometry">
            <mxPoint x="545" y="590" as="targetPoint" />
          </mxGeometry>
        </mxCell>
        <mxCell id="VBlqkpArDyD-FnmfPZUA-27" value="Kong" style="shape=umlLifeline;perimeter=lifelinePerimeter;container=1;collapsible=0;recursiveResize=0;rounded=0;shadow=0;strokeWidth=1;fillColor=#ffe6cc;strokeColor=#d79b00;" vertex="1" parent="1">
          <mxGeometry x="753" y="80" width="90" height="760" as="geometry" />
        </mxCell>
        <mxCell id="VBlqkpArDyD-FnmfPZUA-28" value="request to /qbexport API" style="html=1;verticalAlign=bottom;endArrow=block;curved=0;rounded=0;entryX=0;entryY=0;entryDx=0;entryDy=5;" edge="1" parent="VBlqkpArDyD-FnmfPZUA-27">
          <mxGeometry relative="1" as="geometry">
            <mxPoint x="100" y="75" as="sourcePoint" />
          </mxGeometry>
        </mxCell>
        <mxCell id="VBlqkpArDyD-FnmfPZUA-29" value="response qbInvoices" style="html=1;verticalAlign=bottom;endArrow=open;dashed=1;endSize=8;curved=0;rounded=0;exitX=0;exitY=1;exitDx=0;exitDy=-5;" edge="1" parent="VBlqkpArDyD-FnmfPZUA-27">
          <mxGeometry relative="1" as="geometry">
            <mxPoint x="100" y="145" as="targetPoint" />
          </mxGeometry>
        </mxCell>
        <mxCell id="VBlqkpArDyD-FnmfPZUA-30" value="" style="html=1;points=[[0,0,0,0,5],[0,1,0,0,-5],[1,0,0,0,5],[1,1,0,0,-5]];perimeter=orthogonalPerimeter;outlineConnect=0;targetShapes=umlLifeline;portConstraint=eastwest;newEdgeStyle={&quot;curved&quot;:0,&quot;rounded&quot;:0};" vertex="1" parent="VBlqkpArDyD-FnmfPZUA-27">
          <mxGeometry x="40" y="270" width="10" height="160" as="geometry" />
        </mxCell>
        <mxCell id="VBlqkpArDyD-FnmfPZUA-31" value="" style="html=1;points=[[0,0,0,0,5],[0,1,0,0,-5],[1,0,0,0,5],[1,1,0,0,-5]];perimeter=orthogonalPerimeter;outlineConnect=0;targetShapes=umlLifeline;portConstraint=eastwest;newEdgeStyle={&quot;curved&quot;:0,&quot;rounded&quot;:0};" vertex="1" parent="VBlqkpArDyD-FnmfPZUA-27">
          <mxGeometry x="50" y="313.75" width="10" height="22.5" as="geometry" />
        </mxCell>
        <mxCell id="VBlqkpArDyD-FnmfPZUA-32" value="Validate JWT" style="html=1;align=left;spacingLeft=2;endArrow=block;rounded=0;edgeStyle=orthogonalEdgeStyle;curved=0;rounded=0;" edge="1" parent="VBlqkpArDyD-FnmfPZUA-27" target="VBlqkpArDyD-FnmfPZUA-31">
          <mxGeometry x="0.2632" relative="1" as="geometry">
            <mxPoint x="47" y="280" as="sourcePoint" />
            <Array as="points">
              <mxPoint x="50" y="280" />
              <mxPoint x="85" y="280" />
              <mxPoint x="85" y="320" />
            </Array>
            <mxPoint as="offset" />
          </mxGeometry>
        </mxCell>
        <mxCell id="VBlqkpArDyD-FnmfPZUA-33" value="request to /ltpaidentity with JWT" style="html=1;verticalAlign=bottom;endArrow=block;curved=0;rounded=0;entryX=0;entryY=0;entryDx=0;entryDy=5;exitX=1;exitY=0;exitDx=0;exitDy=5;exitPerimeter=0;" edge="1" parent="1" source="VBlqkpArDyD-FnmfPZUA-3" target="VBlqkpArDyD-FnmfPZUA-11">
          <mxGeometry x="0.0039" relative="1" as="geometry">
            <mxPoint x="550" y="245" as="sourcePoint" />
            <mxPoint as="offset" />
          </mxGeometry>
        </mxCell>
        <mxCell id="VBlqkpArDyD-FnmfPZUA-34" value="WCToken WCTrustedToken" style="html=1;verticalAlign=bottom;endArrow=open;dashed=1;endSize=8;curved=0;rounded=0;entryX=1;entryY=1;entryDx=0;entryDy=-5;entryPerimeter=0;exitX=-0.3;exitY=0.78;exitDx=0;exitDy=0;exitPerimeter=0;" edge="1" parent="1" source="VBlqkpArDyD-FnmfPZUA-11">
          <mxGeometry relative="1" as="geometry">
            <mxPoint x="545" y="280" as="targetPoint" />
            <mxPoint as="offset" />
            <mxPoint x="750" y="280" as="sourcePoint" />
          </mxGeometry>
        </mxCell>
        <mxCell id="VBlqkpArDyD-FnmfPZUA-35" style="edgeStyle=orthogonalEdgeStyle;rounded=0;orthogonalLoop=1;jettySize=auto;html=1;curved=0;entryX=0;entryY=0;entryDx=0;entryDy=5;entryPerimeter=0;" edge="1" parent="1" source="VBlqkpArDyD-FnmfPZUA-30" target="VBlqkpArDyD-FnmfPZUA-12">
          <mxGeometry relative="1" as="geometry">
            <Array as="points">
              <mxPoint x="910" y="455" />
              <mxPoint x="910" y="455" />
            </Array>
          </mxGeometry>
        </mxCell>
        <mxCell id="VBlqkpArDyD-FnmfPZUA-36" value="request to&amp;nbsp;/account/v1/@self" style="edgeLabel;html=1;align=center;verticalAlign=middle;resizable=0;points=[];" connectable="0" vertex="1" parent="VBlqkpArDyD-FnmfPZUA-35">
          <mxGeometry x="-0.0529" y="4" relative="1" as="geometry">
            <mxPoint y="-7" as="offset" />
          </mxGeometry>
        </mxCell>
        <mxCell id="VBlqkpArDyD-FnmfPZUA-37" style="edgeStyle=orthogonalEdgeStyle;rounded=0;orthogonalLoop=1;jettySize=auto;html=1;curved=0;dashed=1;endArrow=open;endFill=0;" edge="1" parent="1" target="VBlqkpArDyD-FnmfPZUA-30">
          <mxGeometry relative="1" as="geometry">
            <mxPoint x="979" y="490" as="sourcePoint" />
            <mxPoint x="803" y="417" as="targetPoint" />
            <Array as="points">
              <mxPoint x="979" y="490" />
            </Array>
          </mxGeometry>
        </mxCell>
        <mxCell id="VBlqkpArDyD-FnmfPZUA-38" value="linkedAccounts" style="edgeLabel;html=1;align=center;verticalAlign=middle;resizable=0;points=[];" connectable="0" vertex="1" parent="VBlqkpArDyD-FnmfPZUA-37">
          <mxGeometry x="0.0267" relative="1" as="geometry">
            <mxPoint y="-7" as="offset" />
          </mxGeometry>
        </mxCell>
        <mxCell id="VBlqkpArDyD-FnmfPZUA-39" value="ResponseEntity" style="html=1;verticalAlign=bottom;endArrow=open;dashed=1;endSize=8;curved=0;rounded=0;exitX=0;exitY=1;exitDx=0;exitDy=-5;exitPerimeter=0;" edge="1" parent="1" source="VBlqkpArDyD-FnmfPZUA-18" target="VBlqkpArDyD-FnmfPZUA-52">
          <mxGeometry x="0.0588" y="-5" relative="1" as="geometry">
            <mxPoint x="170" y="629" as="targetPoint" />
            <mxPoint x="340" y="627" as="sourcePoint" />
            <mxPoint as="offset" />
          </mxGeometry>
        </mxCell>
        <mxCell id="VBlqkpArDyD-FnmfPZUA-51" value="create ResponseEntity from Resource" style="text;html=1;align=center;verticalAlign=middle;whiteSpace=wrap;rounded=0;" vertex="1" parent="1">
          <mxGeometry x="590" y="730" width="130" height="60" as="geometry" />
        </mxCell>
        <mxCell id="VBlqkpArDyD-FnmfPZUA-52" value="" style="html=1;points=[[0,0,0,0,5],[0,1,0,0,-5],[1,0,0,0,5],[1,1,0,0,-5]];perimeter=orthogonalPerimeter;outlineConnect=0;targetShapes=umlLifeline;portConstraint=eastwest;newEdgeStyle={&quot;curved&quot;:0,&quot;rounded&quot;:0};" vertex="1" parent="1">
          <mxGeometry x="145" y="150" width="10" height="690" as="geometry" />
        </mxCell>
        <mxCell id="VBlqkpArDyD-FnmfPZUA-53" value="ResponseEntity" style="html=1;verticalAlign=bottom;endArrow=open;dashed=1;endSize=8;curved=0;rounded=0;" edge="1" parent="1" source="VBlqkpArDyD-FnmfPZUA-3" target="VBlqkpArDyD-FnmfPZUA-18">
          <mxGeometry x="0.0244" relative="1" as="geometry">
            <mxPoint x="330" y="880" as="targetPoint" />
            <mxPoint x="530" y="820" as="sourcePoint" />
            <mxPoint as="offset" />
            <Array as="points">
              <mxPoint x="440" y="820" />
            </Array>
          </mxGeometry>
        </mxCell>
      </root>
    </mxGraphModel>
  </diagram>
</mxfile>
